<mxfile host="app.diagrams.net" agent="Mozilla/5.0 (Windows NT 6.2; Win64; x64; rv:109.0) Gecko/20100101 Firefox/115.0" version="24.7.5">
  <diagram name="Page-1" id="13e1069c-82ec-6db2-03f1-153e76fe0fe0">
    <mxGraphModel dx="2137" dy="870" grid="0" gridSize="10" guides="0" tooltips="1" connect="1" arrows="1" fold="1" page="1" pageScale="1" pageWidth="1100" pageHeight="850" background="none" math="0" shadow="0">
      <root>
        <mxCell id="0" />
        <mxCell id="1" parent="0" />
        <mxCell id="7baba1c4bc27f4b0-2" value=":Page" style="shape=umlLifeline;perimeter=lifelinePerimeter;whiteSpace=wrap;html=1;container=1;collapsible=0;recursiveResize=0;outlineConnect=0;rounded=1;shadow=0;comic=0;labelBackgroundColor=none;strokeWidth=1;fontFamily=Verdana;fontSize=12;align=center;" parent="1" vertex="1">
          <mxGeometry x="240" y="80" width="100" height="950" as="geometry" />
        </mxCell>
        <mxCell id="7baba1c4bc27f4b0-10" value="" style="html=1;points=[];perimeter=orthogonalPerimeter;rounded=0;shadow=0;comic=0;labelBackgroundColor=none;strokeWidth=1;fontFamily=Verdana;fontSize=12;align=center;fillColor=#99FFCC;strokeColor=none;" parent="7baba1c4bc27f4b0-2" vertex="1">
          <mxGeometry x="45" y="100" width="10" height="20" as="geometry" />
        </mxCell>
        <mxCell id="7baba1c4bc27f4b0-3" value=":Registration Form" style="shape=umlLifeline;perimeter=lifelinePerimeter;whiteSpace=wrap;html=1;container=1;collapsible=0;recursiveResize=0;outlineConnect=0;rounded=1;shadow=0;comic=0;labelBackgroundColor=none;strokeWidth=1;fontFamily=Verdana;fontSize=12;align=center;" parent="1" vertex="1">
          <mxGeometry x="400" y="80" width="100" height="950" as="geometry" />
        </mxCell>
        <mxCell id="7baba1c4bc27f4b0-17" value="Check user name" style="html=1;verticalAlign=bottom;endArrow=block;labelBackgroundColor=none;fontFamily=Verdana;fontSize=12;edgeStyle=elbowEdgeStyle;elbow=vertical;" parent="7baba1c4bc27f4b0-3" edge="1">
          <mxGeometry relative="1" as="geometry">
            <mxPoint x="55" y="150" as="sourcePoint" />
            <Array as="points">
              <mxPoint x="60" y="150" />
            </Array>
            <mxPoint x="185" y="150" as="targetPoint" />
          </mxGeometry>
        </mxCell>
        <mxCell id="iImowtzehrR9jhTxPyKj-16" value="" style="html=1;points=[];perimeter=orthogonalPerimeter;rounded=0;shadow=0;comic=0;labelBackgroundColor=none;strokeWidth=1;fontFamily=Verdana;fontSize=12;align=center;fillColor=#99FFCC;strokeColor=none;" vertex="1" parent="7baba1c4bc27f4b0-3">
          <mxGeometry x="45" y="360" width="10" height="60" as="geometry" />
        </mxCell>
        <mxCell id="7baba1c4bc27f4b0-13" value="" style="html=1;points=[];perimeter=orthogonalPerimeter;rounded=0;shadow=0;comic=0;labelBackgroundColor=none;strokeWidth=1;fontFamily=Verdana;fontSize=12;align=center;fillColor=#99FFCC;strokeColor=none;" parent="7baba1c4bc27f4b0-3" vertex="1">
          <mxGeometry x="45" y="120" width="10" height="170" as="geometry" />
        </mxCell>
        <mxCell id="7baba1c4bc27f4b0-22" value="" style="html=1;points=[];perimeter=orthogonalPerimeter;rounded=0;shadow=0;comic=0;labelBackgroundColor=none;strokeWidth=1;fontFamily=Verdana;fontSize=12;align=center;fillColor=#99FFCC;strokeColor=none;" parent="7baba1c4bc27f4b0-3" vertex="1">
          <mxGeometry x="45" y="710" width="10" height="110" as="geometry" />
        </mxCell>
        <mxCell id="iImowtzehrR9jhTxPyKj-41" value="" style="html=1;points=[];perimeter=orthogonalPerimeter;rounded=0;shadow=0;comic=0;labelBackgroundColor=none;strokeWidth=1;fontFamily=Verdana;fontSize=12;align=center;fillColor=#99FFCC;strokeColor=none;" vertex="1" parent="7baba1c4bc27f4b0-3">
          <mxGeometry x="45" y="870" width="10" height="50" as="geometry" />
        </mxCell>
        <mxCell id="7baba1c4bc27f4b0-4" value=":Authentication Server" style="shape=umlLifeline;perimeter=lifelinePerimeter;whiteSpace=wrap;html=1;container=1;collapsible=0;recursiveResize=0;outlineConnect=0;rounded=1;shadow=0;comic=0;labelBackgroundColor=none;strokeWidth=1;fontFamily=Verdana;fontSize=12;align=center;" parent="1" vertex="1">
          <mxGeometry x="540" y="80" width="100" height="950" as="geometry" />
        </mxCell>
        <mxCell id="7baba1c4bc27f4b0-23" value="Enter password" style="html=1;verticalAlign=bottom;endArrow=block;labelBackgroundColor=none;fontFamily=Verdana;fontSize=12;" parent="1" source="7baba1c4bc27f4b0-9" edge="1">
          <mxGeometry relative="1" as="geometry">
            <mxPoint x="510" y="420" as="sourcePoint" />
            <mxPoint x="450" y="440" as="targetPoint" />
          </mxGeometry>
        </mxCell>
        <mxCell id="7baba1c4bc27f4b0-11" value="Click on &quot;Register&quot; button" style="html=1;verticalAlign=bottom;endArrow=block;entryX=0;entryY=0;labelBackgroundColor=none;fontFamily=Verdana;fontSize=12;edgeStyle=elbowEdgeStyle;elbow=vertical;" parent="1" source="7baba1c4bc27f4b0-9" target="7baba1c4bc27f4b0-10" edge="1">
          <mxGeometry relative="1" as="geometry">
            <mxPoint x="220" y="190" as="sourcePoint" />
          </mxGeometry>
        </mxCell>
        <mxCell id="7baba1c4bc27f4b0-14" value="Open registration form" style="html=1;verticalAlign=bottom;endArrow=block;entryX=0;entryY=0;labelBackgroundColor=none;fontFamily=Verdana;fontSize=12;edgeStyle=elbowEdgeStyle;elbow=vertical;exitX=0.924;exitY=1.007;exitDx=0;exitDy=0;exitPerimeter=0;" parent="1" source="7baba1c4bc27f4b0-10" target="7baba1c4bc27f4b0-13" edge="1">
          <mxGeometry relative="1" as="geometry">
            <mxPoint x="370" y="200" as="sourcePoint" />
          </mxGeometry>
        </mxCell>
        <mxCell id="iImowtzehrR9jhTxPyKj-2" value="Alt" style="shape=umlFrame;whiteSpace=wrap;html=1;pointerEvents=0;recursiveResize=0;container=1;collapsible=0;width=160;" vertex="1" parent="1">
          <mxGeometry y="240" width="640" height="180" as="geometry" />
        </mxCell>
        <mxCell id="iImowtzehrR9jhTxPyKj-5" value="User name exists" style="text;html=1;align=center;verticalAlign=middle;whiteSpace=wrap;rounded=0;" vertex="1" parent="iImowtzehrR9jhTxPyKj-2">
          <mxGeometry x="10" y="45" width="60" height="30" as="geometry" />
        </mxCell>
        <mxCell id="iImowtzehrR9jhTxPyKj-6" value="User name is unique" style="text;html=1;align=center;verticalAlign=middle;whiteSpace=wrap;rounded=0;" vertex="1" parent="iImowtzehrR9jhTxPyKj-2">
          <mxGeometry x="10" y="110" width="60" height="30" as="geometry" />
        </mxCell>
        <mxCell id="iImowtzehrR9jhTxPyKj-4" value="" style="endArrow=none;dashed=1;html=1;rounded=0;exitX=0.004;exitY=0.472;exitDx=0;exitDy=0;exitPerimeter=0;entryX=1.002;entryY=0.614;entryDx=0;entryDy=0;entryPerimeter=0;" edge="1" parent="iImowtzehrR9jhTxPyKj-2" target="iImowtzehrR9jhTxPyKj-2">
          <mxGeometry width="50" height="50" relative="1" as="geometry">
            <mxPoint x="4.9500000000000455" y="109.99999999999994" as="sourcePoint" />
            <mxPoint x="550.0000000000002" y="109.99999999999994" as="targetPoint" />
          </mxGeometry>
        </mxCell>
        <mxCell id="iImowtzehrR9jhTxPyKj-9" value="" style="endArrow=open;html=1;rounded=0;align=center;verticalAlign=bottom;dashed=1;endFill=0;labelBackgroundColor=none;exitX=-0.019;exitY=0.339;exitDx=0;exitDy=0;exitPerimeter=0;" edge="1" parent="1" source="7baba1c4bc27f4b0-16">
          <mxGeometry relative="1" as="geometry">
            <mxPoint x="470" y="299.5" as="sourcePoint" />
            <mxPoint x="458" y="277" as="targetPoint" />
          </mxGeometry>
        </mxCell>
        <mxCell id="iImowtzehrR9jhTxPyKj-10" value="User name exists" style="resizable=0;html=1;align=center;verticalAlign=top;labelBackgroundColor=none;" connectable="0" vertex="1" parent="iImowtzehrR9jhTxPyKj-9">
          <mxGeometry relative="1" as="geometry" />
        </mxCell>
        <mxCell id="iImowtzehrR9jhTxPyKj-14" value="" style="endArrow=open;html=1;rounded=0;align=center;verticalAlign=bottom;dashed=1;endFill=0;labelBackgroundColor=none;exitX=0.033;exitY=0.755;exitDx=0;exitDy=0;exitPerimeter=0;entryX=1.113;entryY=0.175;entryDx=0;entryDy=0;entryPerimeter=0;" edge="1" parent="1" source="7baba1c4bc27f4b0-13" target="7baba1c4bc27f4b0-9">
          <mxGeometry relative="1" as="geometry">
            <mxPoint x="440" y="328" as="sourcePoint" />
            <mxPoint x="154" y="328" as="targetPoint" />
          </mxGeometry>
        </mxCell>
        <mxCell id="iImowtzehrR9jhTxPyKj-15" value="Show warning message " style="resizable=0;html=1;align=center;verticalAlign=top;labelBackgroundColor=none;fillColor=#FFFFFF;" connectable="0" vertex="1" parent="iImowtzehrR9jhTxPyKj-14">
          <mxGeometry relative="1" as="geometry">
            <mxPoint x="61" y="-9" as="offset" />
          </mxGeometry>
        </mxCell>
        <mxCell id="iImowtzehrR9jhTxPyKj-17" value="Opt" style="shape=umlFrame;whiteSpace=wrap;html=1;pointerEvents=0;recursiveResize=0;container=1;collapsible=0;width=160;" vertex="1" parent="1">
          <mxGeometry y="460" width="640" height="90" as="geometry" />
        </mxCell>
        <mxCell id="iImowtzehrR9jhTxPyKj-18" value="Password is shorter than 8 characters&amp;nbsp; or doesn&#39;t contain numbers" style="text;html=1;align=center;verticalAlign=middle;whiteSpace=wrap;rounded=0;" vertex="1" parent="iImowtzehrR9jhTxPyKj-17">
          <mxGeometry x="10" y="45" width="130" height="30" as="geometry" />
        </mxCell>
        <mxCell id="iImowtzehrR9jhTxPyKj-27" value="Opt" style="shape=umlFrame;whiteSpace=wrap;html=1;pointerEvents=0;recursiveResize=0;container=1;collapsible=0;width=160;" vertex="1" parent="iImowtzehrR9jhTxPyKj-17">
          <mxGeometry y="150" width="640" height="150" as="geometry" />
        </mxCell>
        <mxCell id="iImowtzehrR9jhTxPyKj-28" value="[Password and password confirmation are not the same]" style="text;html=1;align=center;verticalAlign=middle;whiteSpace=wrap;rounded=0;" vertex="1" parent="iImowtzehrR9jhTxPyKj-27">
          <mxGeometry x="10" y="45" width="130" height="30" as="geometry" />
        </mxCell>
        <mxCell id="iImowtzehrR9jhTxPyKj-25" value="" style="html=1;points=[];perimeter=orthogonalPerimeter;rounded=0;shadow=0;comic=0;labelBackgroundColor=none;strokeWidth=1;fontFamily=Verdana;fontSize=12;align=center;fillColor=#99FFCC;strokeColor=none;" vertex="1" parent="iImowtzehrR9jhTxPyKj-27">
          <mxGeometry x="445" y="-40" width="10" height="130" as="geometry" />
        </mxCell>
        <mxCell id="iImowtzehrR9jhTxPyKj-29" value="" style="endArrow=open;html=1;rounded=0;align=center;verticalAlign=bottom;dashed=1;endFill=0;labelBackgroundColor=none;entryX=0.856;entryY=0.612;entryDx=0;entryDy=0;entryPerimeter=0;" edge="1" parent="iImowtzehrR9jhTxPyKj-27" target="7baba1c4bc27f4b0-9">
          <mxGeometry relative="1" as="geometry">
            <mxPoint x="445" y="90" as="sourcePoint" />
            <mxPoint x="155" y="90" as="targetPoint" />
          </mxGeometry>
        </mxCell>
        <mxCell id="iImowtzehrR9jhTxPyKj-30" value="Show information about not matching passwords" style="resizable=0;html=1;align=center;verticalAlign=top;labelBackgroundColor=none;" connectable="0" vertex="1" parent="iImowtzehrR9jhTxPyKj-29">
          <mxGeometry relative="1" as="geometry">
            <mxPoint x="10" as="offset" />
          </mxGeometry>
        </mxCell>
        <mxCell id="iImowtzehrR9jhTxPyKj-11" value="" style="endArrow=open;html=1;rounded=0;align=center;verticalAlign=bottom;dashed=1;endFill=0;labelBackgroundColor=none;exitX=-0.175;exitY=0.979;exitDx=0;exitDy=0;exitPerimeter=0;" edge="1" parent="1" source="7baba1c4bc27f4b0-16">
          <mxGeometry relative="1" as="geometry">
            <mxPoint x="514.66" y="364.65999999999997" as="sourcePoint" />
            <mxPoint x="452" y="367" as="targetPoint" />
          </mxGeometry>
        </mxCell>
        <mxCell id="iImowtzehrR9jhTxPyKj-12" value="User name doesn&#39;t exist" style="resizable=0;html=1;align=center;verticalAlign=top;labelBackgroundColor=none;" connectable="0" vertex="1" parent="iImowtzehrR9jhTxPyKj-11">
          <mxGeometry relative="1" as="geometry" />
        </mxCell>
        <mxCell id="iImowtzehrR9jhTxPyKj-23" value="" style="endArrow=open;html=1;rounded=0;align=center;verticalAlign=bottom;dashed=1;endFill=0;labelBackgroundColor=none;" edge="1" parent="1">
          <mxGeometry relative="1" as="geometry">
            <mxPoint x="444" y="500" as="sourcePoint" />
            <mxPoint x="166" y="500" as="targetPoint" />
          </mxGeometry>
        </mxCell>
        <mxCell id="iImowtzehrR9jhTxPyKj-24" value="Show invalid password message" style="resizable=0;html=1;align=center;verticalAlign=top;labelBackgroundColor=none;" connectable="0" vertex="1" parent="iImowtzehrR9jhTxPyKj-23">
          <mxGeometry relative="1" as="geometry">
            <mxPoint x="61" y="1" as="offset" />
          </mxGeometry>
        </mxCell>
        <mxCell id="iImowtzehrR9jhTxPyKj-32" value="Alt" style="shape=umlFrame;whiteSpace=wrap;html=1;pointerEvents=0;recursiveResize=0;container=1;collapsible=0;width=160;" vertex="1" parent="1">
          <mxGeometry y="800" width="640" height="225" as="geometry" />
        </mxCell>
        <mxCell id="iImowtzehrR9jhTxPyKj-33" value="[The form is filled correctly]" style="text;html=1;align=center;verticalAlign=middle;whiteSpace=wrap;rounded=0;" vertex="1" parent="iImowtzehrR9jhTxPyKj-32">
          <mxGeometry x="10" y="45" width="130" height="30" as="geometry" />
        </mxCell>
        <mxCell id="iImowtzehrR9jhTxPyKj-34" value="[The form contains validation error]" style="text;html=1;align=center;verticalAlign=middle;whiteSpace=wrap;rounded=0;" vertex="1" parent="iImowtzehrR9jhTxPyKj-32">
          <mxGeometry x="10" y="140" width="130" height="30" as="geometry" />
        </mxCell>
        <mxCell id="iImowtzehrR9jhTxPyKj-35" value="" style="endArrow=none;dashed=1;html=1;rounded=0;exitX=0.004;exitY=0.472;exitDx=0;exitDy=0;exitPerimeter=0;entryX=1.002;entryY=0.48;entryDx=0;entryDy=0;entryPerimeter=0;" edge="1" parent="iImowtzehrR9jhTxPyKj-32" target="iImowtzehrR9jhTxPyKj-32">
          <mxGeometry width="50" height="50" relative="1" as="geometry">
            <mxPoint x="4.9500000000000455" y="109.99999999999994" as="sourcePoint" />
            <mxPoint x="550.0000000000002" y="109.99999999999994" as="targetPoint" />
          </mxGeometry>
        </mxCell>
        <mxCell id="iImowtzehrR9jhTxPyKj-38" value="Create user account" style="html=1;verticalAlign=bottom;endArrow=block;labelBackgroundColor=none;fontFamily=Verdana;fontSize=12;entryX=0.5;entryY=0;entryDx=0;entryDy=0;entryPerimeter=0;" edge="1" parent="iImowtzehrR9jhTxPyKj-32" target="iImowtzehrR9jhTxPyKj-37">
          <mxGeometry x="-0.0769" relative="1" as="geometry">
            <mxPoint x="460" y="50" as="sourcePoint" />
            <mxPoint x="735" y="50" as="targetPoint" />
            <mxPoint as="offset" />
          </mxGeometry>
        </mxCell>
        <mxCell id="iImowtzehrR9jhTxPyKj-37" value="" style="html=1;points=[];perimeter=orthogonalPerimeter;rounded=0;shadow=0;comic=0;labelBackgroundColor=none;strokeWidth=1;fontFamily=Verdana;fontSize=12;align=center;fillColor=#99FFCC;strokeColor=none;" vertex="1" parent="iImowtzehrR9jhTxPyKj-32">
          <mxGeometry x="585" y="50" width="10" height="50" as="geometry" />
        </mxCell>
        <mxCell id="7baba1c4bc27f4b0-16" value="" style="html=1;points=[];perimeter=orthogonalPerimeter;rounded=0;shadow=0;comic=0;labelBackgroundColor=none;strokeWidth=1;fontFamily=Verdana;fontSize=12;align=center;fillColor=#99FFCC;strokeColor=none;" parent="1" vertex="1">
          <mxGeometry x="585" y="230" width="10" height="140" as="geometry" />
        </mxCell>
        <mxCell id="7baba1c4bc27f4b0-8" value=":User" style="shape=umlLifeline;perimeter=lifelinePerimeter;whiteSpace=wrap;html=1;container=1;collapsible=0;recursiveResize=0;outlineConnect=0;rounded=1;shadow=0;comic=0;labelBackgroundColor=none;strokeWidth=1;fontFamily=Verdana;fontSize=12;align=center;" parent="1" vertex="1">
          <mxGeometry x="110" y="80" width="100" height="950" as="geometry" />
        </mxCell>
        <mxCell id="7baba1c4bc27f4b0-9" value="" style="html=1;points=[];perimeter=orthogonalPerimeter;rounded=0;shadow=0;comic=0;labelBackgroundColor=none;strokeWidth=1;fontFamily=Verdana;fontSize=12;align=center;fillColor=#99FFCC;strokeColor=none;" parent="7baba1c4bc27f4b0-8" vertex="1">
          <mxGeometry x="45" y="100" width="10" height="850" as="geometry" />
        </mxCell>
        <mxCell id="iImowtzehrR9jhTxPyKj-1" value="Enter user name" style="html=1;verticalAlign=bottom;endArrow=block;labelBackgroundColor=none;fontFamily=Verdana;fontSize=12;edgeStyle=elbowEdgeStyle;elbow=vertical;" edge="1" parent="7baba1c4bc27f4b0-8" target="7baba1c4bc27f4b0-3">
          <mxGeometry x="0.528" relative="1" as="geometry">
            <mxPoint x="55" y="150" as="sourcePoint" />
            <Array as="points" />
            <mxPoint x="340" y="150" as="targetPoint" />
            <mxPoint as="offset" />
          </mxGeometry>
        </mxCell>
        <mxCell id="iImowtzehrR9jhTxPyKj-26" value="Enter password confirmation" style="html=1;verticalAlign=bottom;endArrow=block;labelBackgroundColor=none;fontFamily=Verdana;fontSize=12;entryX=0.102;entryY=0.002;entryDx=0;entryDy=0;entryPerimeter=0;" edge="1" parent="7baba1c4bc27f4b0-8" target="iImowtzehrR9jhTxPyKj-25">
          <mxGeometry relative="1" as="geometry">
            <mxPoint x="55" y="490" as="sourcePoint" />
            <mxPoint x="340" y="490" as="targetPoint" />
          </mxGeometry>
        </mxCell>
        <mxCell id="iImowtzehrR9jhTxPyKj-31" value="Confirm the form" style="html=1;verticalAlign=bottom;endArrow=block;labelBackgroundColor=none;fontFamily=Verdana;fontSize=12;exitX=1.4;exitY=0.694;exitDx=0;exitDy=0;exitPerimeter=0;entryX=0.5;entryY=0;entryDx=0;entryDy=0;entryPerimeter=0;" edge="1" parent="7baba1c4bc27f4b0-8" target="7baba1c4bc27f4b0-22">
          <mxGeometry relative="1" as="geometry">
            <mxPoint x="55" y="710.72" as="sourcePoint" />
            <mxPoint x="330" y="710" as="targetPoint" />
          </mxGeometry>
        </mxCell>
        <mxCell id="iImowtzehrR9jhTxPyKj-36" value=":User account" style="shape=umlLifeline;perimeter=lifelinePerimeter;whiteSpace=wrap;html=1;container=1;collapsible=0;recursiveResize=0;outlineConnect=0;rounded=1;shadow=0;comic=0;labelBackgroundColor=none;strokeWidth=1;fontFamily=Verdana;fontSize=12;align=center;" vertex="1" parent="1">
          <mxGeometry x="690" y="80" width="100" height="950" as="geometry" />
        </mxCell>
        <mxCell id="iImowtzehrR9jhTxPyKj-39" value="" style="endArrow=open;html=1;rounded=0;align=center;verticalAlign=bottom;dashed=1;endFill=0;labelBackgroundColor=none;entryX=1.033;entryY=1.015;entryDx=0;entryDy=0;entryPerimeter=0;exitX=0.031;exitY=1.007;exitDx=0;exitDy=0;exitPerimeter=0;" edge="1" parent="1" source="iImowtzehrR9jhTxPyKj-37" target="7baba1c4bc27f4b0-22">
          <mxGeometry relative="1" as="geometry">
            <mxPoint x="741" y="900" as="sourcePoint" />
            <mxPoint x="460" y="900" as="targetPoint" />
          </mxGeometry>
        </mxCell>
        <mxCell id="iImowtzehrR9jhTxPyKj-40" value="&lt;div&gt;User account&amp;nbsp;&lt;/div&gt;&lt;div&gt;sucessfuly created&lt;/div&gt;" style="resizable=0;html=1;align=center;verticalAlign=top;labelBackgroundColor=none;" connectable="0" vertex="1" parent="iImowtzehrR9jhTxPyKj-39">
          <mxGeometry relative="1" as="geometry">
            <mxPoint x="9" y="-41" as="offset" />
          </mxGeometry>
        </mxCell>
        <mxCell id="iImowtzehrR9jhTxPyKj-42" value="" style="endArrow=open;html=1;rounded=0;align=center;verticalAlign=bottom;dashed=1;endFill=0;labelBackgroundColor=none;exitX=0.159;exitY=1.001;exitDx=0;exitDy=0;exitPerimeter=0;entryX=1.036;entryY=0.965;entryDx=0;entryDy=0;entryPerimeter=0;" edge="1" parent="1" source="iImowtzehrR9jhTxPyKj-41" target="7baba1c4bc27f4b0-9">
          <mxGeometry relative="1" as="geometry">
            <mxPoint x="440" y="1000" as="sourcePoint" />
            <mxPoint x="170" y="1000" as="targetPoint" />
          </mxGeometry>
        </mxCell>
        <mxCell id="iImowtzehrR9jhTxPyKj-43" value="Show error message with incorrect info underlined" style="resizable=0;html=1;align=center;verticalAlign=top;labelBackgroundColor=none;" connectable="0" vertex="1" parent="iImowtzehrR9jhTxPyKj-42">
          <mxGeometry relative="1" as="geometry">
            <mxPoint x="-6" y="-25" as="offset" />
          </mxGeometry>
        </mxCell>
        <mxCell id="iImowtzehrR9jhTxPyKj-44" value="" style="endArrow=open;startArrow=none;endFill=0;startFill=0;endSize=8;html=1;verticalAlign=bottom;dashed=1;labelBackgroundColor=none;rounded=0;exitX=1.3;exitY=0.352;exitDx=0;exitDy=0;exitPerimeter=0;" edge="1" parent="1" source="iImowtzehrR9jhTxPyKj-37" target="iImowtzehrR9jhTxPyKj-36">
          <mxGeometry width="160" relative="1" as="geometry">
            <mxPoint x="270" y="950" as="sourcePoint" />
            <mxPoint x="430" y="950" as="targetPoint" />
          </mxGeometry>
        </mxCell>
      </root>
    </mxGraphModel>
  </diagram>
</mxfile>
